<svg width="100%" height="100%" viewBox="0 0 1307 1744" fill="none" preserveAspectRatio="xMidYMid slice" xmlns="http://www.w3.org/2000/svg">
<path d="M214.787 -7660C110.287 -7347.5 285.789 -7310 897.789 -7261.5C1285.51 -7230.77 1130.29 -6754.5 426.289 -6258C196.081 -6095.64 175.905 -5664.1 238.787 -5335C307.286 -4976.5 951.287 -4714.96 1111.29 -4165.96C1239.29 -3726.76 449.459 -3127.95 108.445 -2949.51C-273.114 -2749.86 -585.285 -2435.62 -521.973 -2167.03C-412.308 -1701.8 244.054 -2143.67 494.932 -1980.12C645.557 -1881.93 525.091 -1666.82 593.233 -1592.83C647.052 -1534.39 784.022 -1511.06 850.213 -1575.31C919.364 -1642.44 836.313 -1717.01 774.287 -1668.76C704.202 -1614.25 695.441 -1446.81 782.466 -1395.16C903.445 -1323.37 1042.95 -1484.77 1148.08 -1376.72C1290.99 -1229.82 1113.29 -809.74 930.868 -834.063C660.867 -870.064 275.261 -819.564 224.368 -677.063C194.368 -593.064 370.85 -552.476 443.868 -513.063C827.368 -306.064 351.496 -206.136 34.8678 -16.5634C-200.633 124.437 93.3672 309.937 281.867 234.937C470.368 159.937 1388.37 -168.563 1271.37 461.437C1215.1 764.437 612.367 698.937 178.867 816.937C45.5339 831.437 -323.133 1112.44 -409.632 1221.44C-501.958 1337.78 -635.132 1716.94 -450.132 1807.94C-265.132 1898.94 165.013 2084.67 222.867 2548.94C323.367 3355.44 -1263.63 4398.94 685.867 4442.94" stroke="#EB6E01" stroke-opacity="0.03" stroke-width="50" stroke-miterlimit="10" stroke-linecap="round" stroke-linejoin="round"/>
</svg>
