<svg xmlns="http://www.w3.org/2000/svg" viewBox="405 210 156 156" fill="none"><defs>
<clipPath id="clip0_42_184">
<rect width="1920" height="9700" fill="white" transform="translate(-20 -5144.91)"/>
</clipPath>
</defs><g id="Line_Expand">
<g id="Line Cut">
<path id="Vector" d="M426.422 283.21C427.013 283.604 427.736 283.75 428.434 283.616C429.132 283.483 429.75 283.081 430.155 282.497C430.56 281.913 430.719 281.193 430.599 280.492C430.479 279.792 430.088 279.167 429.512 278.751C428.23 277.892 427.263 276.639 426.757 275.182C426.251 273.725 426.233 272.142 426.707 270.674C427.181 269.206 428.12 267.932 429.382 267.045C430.644 266.159 432.161 265.707 433.703 265.759C435.731 265.796 437.739 265.343 439.555 264.438C441.372 263.533 442.943 262.203 444.135 260.562C445.328 258.92 446.106 257.015 446.405 255.008C446.704 253 446.514 250.951 445.851 249.033C445.314 247.59 445.263 246.01 445.705 244.535C446.147 243.059 447.059 241.769 448.302 240.859C449.545 239.95 451.051 239.471 452.591 239.495C454.131 239.52 455.621 240.046 456.834 240.995C458.453 242.22 460.344 243.035 462.346 243.371C464.348 243.708 466.401 243.556 468.332 242.929C470.262 242.301 472.013 241.217 473.434 239.768C474.855 238.319 475.906 236.548 476.495 234.605C476.91 233.122 477.798 231.816 479.024 230.885C480.251 229.954 481.748 229.451 483.288 229.451C484.827 229.451 486.324 229.954 487.551 230.885C488.777 231.816 489.665 233.122 490.08 234.605C490.653 236.56 491.695 238.345 493.114 239.806C494.533 241.267 496.288 242.359 498.225 242.989C500.162 243.618 502.223 243.766 504.23 243.418C506.237 243.071 508.129 242.239 509.742 240.995C510.93 240.034 512.404 239.498 513.932 239.472C515.459 239.445 516.951 239.93 518.171 240.85C519.454 241.729 520.403 243.015 520.866 244.499C521.329 245.984 521.279 247.581 520.723 249.033C520.148 250.641 519.908 252.349 520.018 254.053C520.068 254.771 520.4 255.44 520.942 255.913C521.484 256.387 522.191 256.627 522.909 256.582C526.238 256.223 525.02 253.048 525.854 250.837C526.762 248.288 526.82 245.514 526.019 242.93C525.219 240.346 523.604 238.09 521.415 236.501C519.226 234.911 516.581 234.072 513.876 234.111C511.171 234.149 508.551 235.062 506.409 236.713C505.506 237.422 504.442 237.896 503.312 238.094C502.181 238.291 501.02 238.206 499.93 237.845C498.825 237.497 497.824 236.879 497.017 236.048C496.209 235.217 495.621 234.199 495.304 233.085C494.542 230.488 492.96 228.208 490.793 226.586C488.627 224.964 485.994 224.087 483.288 224.087C480.581 224.087 477.948 224.964 475.782 226.586C473.615 228.208 472.033 230.488 471.271 233.085C470.951 234.191 470.365 235.201 469.564 236.029C468.764 236.857 467.773 237.477 466.679 237.834C465.584 238.192 464.419 238.277 463.284 238.082C462.15 237.886 461.08 237.417 460.168 236.713C450.646 228.934 436.273 239.442 440.721 250.837C441.101 251.925 441.213 253.087 441.047 254.227C440.881 255.367 440.443 256.45 439.768 257.383C439.094 258.317 438.204 259.074 437.174 259.589C436.145 260.105 435.006 260.364 433.854 260.345C421.548 259.735 416.125 276.474 426.422 283.21Z" fill="#EB6E01"/>
<path id="Vector_2" d="M493.451 341.73C492.759 341.53 492.017 341.611 491.385 341.955C490.753 342.3 490.282 342.879 490.075 343.568C489.66 345.051 488.772 346.357 487.546 347.287C486.32 348.218 484.823 348.722 483.284 348.722C481.745 348.722 480.247 348.219 479.021 347.289C477.794 346.359 476.906 345.053 476.491 343.571C475.901 341.629 474.851 339.857 473.43 338.407C472.008 336.958 470.258 335.873 468.327 335.245C466.396 334.618 464.343 334.466 462.341 334.802C460.339 335.139 458.447 335.954 456.828 337.179C455.615 338.127 454.125 338.654 452.585 338.678C451.045 338.703 449.54 338.224 448.297 337.314C447.054 336.404 446.142 335.114 445.7 333.639C445.258 332.163 445.309 330.584 445.847 329.141C446.507 327.223 446.694 325.174 446.394 323.168C446.094 321.162 445.315 319.258 444.123 317.617C442.931 315.976 441.361 314.647 439.547 313.741C437.732 312.835 435.725 312.38 433.697 312.415C432.155 312.468 430.638 312.017 429.375 311.13C428.112 310.244 427.172 308.969 426.698 307.501C426.225 306.032 426.243 304.449 426.749 302.991C427.256 301.534 428.224 300.281 429.507 299.423C430.846 298.508 431.994 297.341 432.887 295.987C433.262 295.384 433.386 294.658 433.231 293.964C433.077 293.27 432.658 292.665 432.063 292.277C431.468 291.889 430.744 291.75 430.047 291.888C429.351 292.027 428.736 292.433 428.335 293.02C427.828 293.786 427.176 294.446 426.417 294.964C424.206 296.505 422.549 298.717 421.692 301.272C420.834 303.828 420.821 306.591 421.655 309.154C422.488 311.717 424.123 313.944 426.319 315.507C428.516 317.069 431.156 317.884 433.851 317.831C434.996 317.788 436.135 318.029 437.164 318.534C438.194 319.039 439.082 319.792 439.748 320.725C440.444 321.661 440.897 322.755 441.065 323.909C441.234 325.063 441.114 326.241 440.716 327.337C436.275 338.729 450.628 349.238 460.162 341.46C461.074 340.757 462.144 340.287 463.279 340.092C464.414 339.896 465.58 339.982 466.674 340.34C467.769 340.698 468.76 341.318 469.56 342.146C470.36 342.974 470.946 343.986 471.266 345.092C472.029 347.688 473.611 349.968 475.778 351.589C477.944 353.211 480.577 354.087 483.283 354.087C485.988 354.087 488.621 353.211 490.788 351.589C492.954 349.968 494.536 347.688 495.299 345.092C495.399 344.75 495.43 344.391 495.391 344.037C495.352 343.683 495.244 343.34 495.072 343.028C494.901 342.715 494.669 342.44 494.391 342.217C494.113 341.995 493.793 341.829 493.451 341.73Z" fill="#EB6E01"/>
<path id="Vector_3" d="M540.151 294.964C539.206 294.303 538.434 293.423 537.902 292.4C537.369 291.377 537.091 290.241 537.091 289.087C537.091 287.934 537.369 286.797 537.902 285.774C538.434 284.751 539.206 283.872 540.151 283.21C542.361 281.669 544.017 279.457 544.875 276.903C545.732 274.348 545.745 271.585 544.912 269.022C544.079 266.459 542.444 264.232 540.248 262.67C538.052 261.108 535.412 260.293 532.718 260.346C531.543 260.382 530.378 260.123 529.329 259.593C528.687 259.265 527.941 259.205 527.255 259.425C526.569 259.646 525.998 260.129 525.667 260.77C524.039 264.824 529.958 265.784 532.87 265.76C534.412 265.707 535.929 266.158 537.192 267.044C538.454 267.931 539.394 269.205 539.867 270.674C540.341 272.142 540.323 273.725 539.817 275.183C539.31 276.64 538.343 277.893 537.061 278.751C535.4 279.916 534.045 281.463 533.11 283.262C532.174 285.061 531.686 287.059 531.686 289.087C531.686 291.115 532.174 293.113 533.11 294.912C534.045 296.711 535.4 298.259 537.061 299.423C538.342 300.282 539.308 301.535 539.814 302.992C540.32 304.449 540.337 306.031 539.864 307.499C539.39 308.966 538.452 310.24 537.19 311.127C535.929 312.014 534.412 312.466 532.871 312.415C530.843 312.379 528.835 312.833 527.02 313.738C525.204 314.643 523.633 315.973 522.441 317.615C521.249 319.256 520.47 321.161 520.17 323.167C519.871 325.174 520.06 327.223 520.721 329.141C521.276 330.594 521.326 332.191 520.863 333.675C520.4 335.159 519.451 336.445 518.168 337.324C516.948 338.242 515.456 338.727 513.929 338.7C512.402 338.674 510.927 338.138 509.74 337.179C507.635 335.541 505.057 334.625 502.391 334.568C501.677 334.56 500.99 334.834 500.477 335.331C499.964 335.827 499.668 336.505 499.653 337.219C499.638 337.932 499.904 338.623 500.395 339.141C500.886 339.658 501.561 339.962 502.274 339.985C503.773 340.019 505.222 340.536 506.405 341.458C508.547 343.11 511.167 344.023 513.872 344.062C516.577 344.101 519.222 343.263 521.411 341.674C523.601 340.084 525.216 337.828 526.017 335.244C526.817 332.66 526.759 329.886 525.852 327.337C525.471 326.25 525.359 325.087 525.524 323.948C525.69 322.808 526.128 321.725 526.803 320.791C527.477 319.858 528.367 319.101 529.397 318.586C530.427 318.07 531.567 317.811 532.718 317.831C545.045 318.302 550.448 301.761 540.151 294.964Z" fill="#EB6E01"/>
<path id="Vector_4" d="M456.602 319.83C457.148 320.286 457.85 320.51 458.559 320.453C459.268 320.396 459.926 320.064 460.393 319.527C460.859 318.99 461.096 318.292 461.053 317.582C461.01 316.872 460.69 316.207 460.162 315.731C457.611 313.538 455.386 310.993 453.554 308.172C453.16 307.568 452.543 307.144 451.838 306.994C451.133 306.843 450.397 306.978 449.791 307.368C445.496 310.225 454.363 317.544 456.602 319.83Z" fill="#EB6E01"/>
<path id="Vector_5" d="M446.703 281.194C447.291 281.194 447.863 281.003 448.334 280.651C448.805 280.299 449.149 279.804 449.315 279.241C450.257 276.018 451.658 272.948 453.477 270.125C453.845 269.517 453.961 268.79 453.8 268.098C453.639 267.406 453.213 266.804 452.614 266.422C452.014 266.04 451.289 265.908 450.594 266.054C449.899 266.2 449.288 266.612 448.893 267.203C447.348 270.136 440.358 280.521 446.703 281.194Z" fill="#EB6E01"/>
<path id="Vector_6" d="M442.469 289.17C442.77 292.407 442.483 303.741 447.511 302.436C447.853 302.336 448.172 302.17 448.45 301.947C448.728 301.724 448.959 301.448 449.13 301.136C449.301 300.823 449.408 300.48 449.446 300.126C449.484 299.771 449.452 299.413 449.351 299.071C448.4 295.853 447.915 292.515 447.911 289.16C447.896 288.447 447.602 287.769 447.092 287.271C446.582 286.773 445.897 286.495 445.185 286.496C444.472 286.497 443.788 286.778 443.28 287.278C442.773 287.778 442.481 288.458 442.469 289.17Z" fill="#EB6E01"/>
<path id="Vector_7" d="M478.291 323.947C474.955 323.477 471.703 322.532 468.634 321.14C468.31 320.991 467.96 320.907 467.604 320.894C467.248 320.88 466.892 320.937 466.558 321.061C466.223 321.185 465.917 321.373 465.655 321.616C465.394 321.858 465.183 322.15 465.035 322.474C464.887 322.799 464.804 323.149 464.791 323.505C464.778 323.862 464.836 324.217 464.96 324.551C465.085 324.885 465.275 325.191 465.518 325.452C465.761 325.713 466.054 325.923 466.378 326.07C469.922 327.676 473.676 328.767 477.528 329.31C477.881 329.362 478.24 329.343 478.586 329.255C478.931 329.167 479.256 329.012 479.542 328.798C479.827 328.585 480.068 328.317 480.249 328.01C480.431 327.704 480.55 327.364 480.6 327.011C480.651 326.658 480.631 326.299 480.542 325.953C480.453 325.608 480.296 325.284 480.082 324.999C479.867 324.715 479.599 324.475 479.291 324.294C478.984 324.114 478.644 323.995 478.291 323.947Z" fill="#EB6E01"/>
<path id="Vector_8" d="M498.007 321.114C494.943 322.512 491.694 323.462 488.359 323.936C487.688 324.042 487.082 324.395 486.659 324.927C486.237 325.458 486.029 326.129 486.077 326.806C486.125 327.483 486.425 328.117 486.918 328.584C487.411 329.051 488.061 329.315 488.74 329.326C491.846 328.764 503.781 327.129 501.615 322.447C501.311 321.793 500.762 321.286 500.086 321.036C499.41 320.787 498.663 320.814 498.007 321.114Z" fill="#EB6E01"/>
<path id="Vector_9" d="M508.127 263.052C508.677 263.045 509.211 262.873 509.661 262.556C510.111 262.24 510.454 261.795 510.646 261.28C510.839 260.765 510.87 260.204 510.738 259.671C510.605 259.137 510.314 258.656 509.903 258.291C507.303 256.42 498.719 248.761 496.516 253.418C496.369 253.742 496.287 254.092 496.275 254.448C496.263 254.803 496.322 255.158 496.448 255.491C496.574 255.824 496.764 256.129 497.008 256.388C497.252 256.648 497.545 256.856 497.87 257.002C500.939 258.388 503.796 260.204 506.353 262.396C506.847 262.82 507.476 263.053 508.127 263.052Z" fill="#EB6E01"/>
<path id="Vector_10" d="M519.087 302.364C524.116 303.66 523.809 292.341 524.105 289.087C524.122 288.723 524.064 288.358 523.934 288.017C523.804 287.675 523.606 287.364 523.35 287.103C523.095 286.842 522.788 286.636 522.45 286.498C522.112 286.361 521.749 286.295 521.383 286.304C520.656 286.319 519.963 286.619 519.454 287.14C518.946 287.66 518.661 288.359 518.662 289.087C518.665 292.443 518.187 295.782 517.242 299.003C517.142 299.345 517.11 299.703 517.149 300.057C517.187 300.411 517.295 300.754 517.467 301.067C517.638 301.379 517.87 301.654 518.148 301.877C518.426 302.1 518.745 302.265 519.087 302.364Z" fill="#EB6E01"/>
<path id="Vector_11" d="M519.808 280.971C526.175 280.285 519.117 269.928 517.548 266.994C517.15 266.405 516.536 265.996 515.84 265.854C515.143 265.712 514.419 265.848 513.821 266.234C513.224 266.62 512.802 267.224 512.645 267.917C512.488 268.611 512.609 269.338 512.982 269.943C514.818 272.755 516.238 275.817 517.201 279.034C517.369 279.594 517.714 280.085 518.184 280.434C518.653 280.783 519.223 280.971 519.808 280.971Z" fill="#EB6E01"/>
<path id="Vector_12" d="M478.144 254.249C481.483 253.77 484.872 253.759 488.214 254.217C488.567 254.268 488.927 254.249 489.272 254.16C489.618 254.072 489.943 253.917 490.228 253.702C490.513 253.488 490.753 253.22 490.934 252.913C491.116 252.606 491.234 252.266 491.284 251.913C491.334 251.559 491.313 251.2 491.223 250.855C491.133 250.51 490.976 250.186 490.761 249.901C490.545 249.617 490.276 249.378 489.968 249.198C489.66 249.018 489.32 248.901 488.966 248.853C485.115 248.325 481.209 248.336 477.361 248.887C476.681 248.983 476.063 249.334 475.632 249.867C475.201 250.401 474.989 251.079 475.038 251.763C475.088 252.447 475.395 253.087 475.898 253.554C476.401 254.021 477.062 254.279 477.749 254.276C477.881 254.276 478.013 254.267 478.144 254.249Z" fill="#EB6E01"/>
<path id="Vector_13" d="M508.251 320.436C508.906 320.437 509.539 320.201 510.034 319.773C512.968 317.237 515.527 314.296 517.634 311.039C518.019 310.432 518.149 309.698 517.993 308.996C517.838 308.294 517.411 307.682 516.806 307.294C516.2 306.907 515.466 306.775 514.763 306.927C514.061 307.08 513.448 307.505 513.058 308.109C511.231 310.934 509.011 313.484 506.465 315.684C506.047 316.046 505.75 316.527 505.614 317.063C505.478 317.599 505.51 318.164 505.704 318.681C505.899 319.199 506.247 319.645 506.702 319.958C507.158 320.272 507.698 320.439 508.251 320.436Z" fill="#EB6E01"/>
<path id="Vector_14" d="M469.834 253.499C469.53 252.845 468.98 252.339 468.304 252.09C467.628 251.841 466.881 251.87 466.226 252.171C463.461 253.733 452.88 258.338 456.213 262.274C456.689 262.815 457.36 263.147 458.079 263.196C458.798 263.245 459.508 263.008 460.053 262.536C462.595 260.328 465.44 258.494 468.5 257.09C468.824 256.943 469.116 256.733 469.359 256.472C469.602 256.211 469.79 255.905 469.914 255.572C470.038 255.238 470.095 254.883 470.081 254.527C470.068 254.171 469.984 253.822 469.834 253.499Z" fill="#EB6E01"/>
<path id="Vector_15" d="M501.168 273.326C500.576 272.914 499.846 272.753 499.136 272.878C498.426 273.003 497.794 273.404 497.379 273.993L479.995 298.709L468.655 289.681C468.091 289.232 467.372 289.024 466.656 289.104C465.939 289.183 465.283 289.543 464.831 290.104C464.608 290.381 464.441 290.7 464.342 291.042C464.242 291.384 464.212 291.742 464.251 292.096C464.291 292.45 464.4 292.792 464.572 293.104C464.745 293.415 464.977 293.69 465.256 293.911L478.861 304.744C479.152 304.976 479.487 305.146 479.846 305.243C480.205 305.34 480.58 305.363 480.947 305.31C481.315 305.258 481.669 305.13 481.985 304.936C482.302 304.742 482.576 304.485 482.79 304.181L501.838 277.098C502.042 276.806 502.188 276.478 502.265 276.13C502.342 275.782 502.35 275.423 502.287 275.073C502.225 274.722 502.094 274.387 501.902 274.088C501.71 273.788 501.46 273.529 501.168 273.326Z" fill="#EB6E01"/>
</g>
</g></svg>