<svg width="222" height="223" viewBox="0 0 222 223" fill="none" xmlns="http://www.w3.org/2000/svg">
<rect width="222" height="223" fill="#EBEBEB"/>
<g id="Home page &#209;&#150;&#208;&#189;&#209;&#132;&#208;&#190;&#209;&#128;&#208;&#188;&#208;&#176;&#209;&#134;&#209;&#150;&#208;&#185;&#208;&#189;&#208;&#184;&#208;&#185;">
<rect width="1920" height="1000" transform="translate(-900.5 -220)" fill="#FFFEFC"/>
<g id="Frame 1618874063">
<g id="Frame 2085663163">
<g id="Group 1000004492">
<path id="Vector" d="M199.114 80.3514C203.306 73.3431 205.163 65.184 204.417 57.0517C204.092 53.7013 203.651 49.4702 201.067 47.0004C200.056 46.0587 198.725 45.5353 197.343 45.5358C198.353 40.7495 198.808 35.834 197.4 31.1051C196.199 27.075 192.112 19.7185 186.842 21.6522C184.631 22.4658 183.357 24.7393 182.448 26.7687C181.281 29.4386 179.943 32.0303 178.442 34.5273C175.411 39.4409 171.68 43.8863 167.366 47.7232C161.556 45.9967 155.489 45.2938 149.437 45.6459C139.161 46.1245 129.138 48.7187 119.03 50.4322C113.832 51.3081 108.543 51.9973 103.259 51.9112C98.3527 51.8298 93.3941 50.8103 89.6895 47.3881C86.5927 44.5163 84.6208 40.6873 82.9886 36.8583C81.2177 32.6894 80.0354 28.1376 77.5561 24.3133C73.3825 17.8662 65.9255 16.1766 58.6264 16.8658C51.8298 17.5168 45.3395 20.1253 43.0134 27.099C42.2124 29.7446 41.8375 32.5009 41.9029 35.2644C41.757 35.3009 41.6157 35.3539 41.4818 35.4224L32.225 40.1177C30.2339 41.1229 27.3861 42.3912 28.6257 45.1338C29.1666 46.3256 30.4062 47.3834 31.2534 48.3502C32.3112 49.542 33.3642 50.7433 34.422 51.9399C36.6843 54.4926 38.945 57.0597 41.2042 59.6411L41.2521 59.6842C40.9792 61.3067 40.6729 62.9197 40.357 64.5375C40.0666 66.0148 39.7906 67.497 39.5289 68.9839C39.3129 69.0426 39.1098 69.1416 38.9307 69.2759C29.9653 75.9064 23.1047 84.9841 19.1728 95.4187C17.0286 101.162 15.7027 107.495 17.0333 113.578C17.9906 117.962 20.4843 122.059 24.1746 124.586C22.9233 126.36 22.145 128.423 21.9132 130.581C21.6815 132.739 22.0038 134.92 22.85 136.918C23.6962 138.917 25.0381 140.667 26.7489 142.002C28.4598 143.338 30.4829 144.214 32.6271 144.55C32.4193 146.251 32.6767 147.977 33.3721 149.544C34.0674 151.111 35.1747 152.459 36.5759 153.447C37.9772 154.434 39.6199 155.022 41.3292 155.15C43.0385 155.277 44.7503 154.939 46.2825 154.171C48.1214 156.924 50.3239 159.416 52.8301 161.58C55.6467 163.99 58.8531 165.903 62.3118 167.237C62.3881 167.274 62.4664 167.306 62.5463 167.333C72.4827 170.597 81.9117 175.197 91.8098 178.542C95.6032 179.826 99.4837 180.837 103.421 181.567C103.421 181.615 103.421 181.668 103.421 181.716C104.417 188.953 105.456 196.18 106.537 203.398C99.9009 204.659 93.3475 206.323 86.9134 208.38C86.496 208.275 86.0545 208.328 85.6738 208.529L84.0082 209.371C82.2468 210.257 83.472 213.2 85.3578 212.578C91.6711 210.446 98.1077 208.699 104.632 207.346C103.575 208.615 102.598 209.969 101.583 211.214L95.457 218.757C94.0211 220.494 96.5147 222.993 97.941 221.236C101.402 216.972 104.695 212.453 108.409 208.409C111.759 204.771 116.699 205.13 121.217 205.537C123.466 205.733 123.452 202.225 121.217 202.034C117.469 201.708 113.453 201.555 109.998 203.024C108.961 196.075 107.96 189.123 106.997 182.171C111.57 182.81 116.189 183.066 120.805 182.936C126.442 182.772 132.051 182.076 137.557 180.859C137.496 181.023 137.462 181.196 137.457 181.371C137.457 181.52 137.457 181.673 137.457 181.816C137.445 182.121 137.514 182.423 137.658 182.692C138.88 190.408 139.837 198.158 140.53 205.944L120.178 209.855C117.962 210.276 118.905 213.684 121.135 213.234L138.936 209.816C136.332 213.398 133.131 216.505 129.473 219.001C127.616 220.265 129.373 223.309 131.244 222.031C136.099 218.735 140.225 214.479 143.368 209.524L154.166 211.161C156.377 211.496 157.325 208.122 155.123 207.782L144.115 206.107C143.368 197.673 142.323 189.272 140.979 180.902C140.936 180.621 140.815 180.357 140.63 180.141C152.426 177.148 163.449 171.674 172.962 164.083C197.022 144.722 209.338 109.892 198.98 80.6194C199.031 80.5335 199.076 80.4439 199.114 80.3514ZM179.078 39.9789C180.563 37.9117 181.914 35.7518 183.123 33.5126C184.224 31.4689 185.037 29.2911 186.148 27.2473C186.555 26.4863 187.177 25.2658 188.062 24.9499C189.111 24.5766 190.13 25.6392 190.795 26.3092C192.403 27.9956 193.555 30.0625 194.146 32.3161C195.634 37.581 194.486 43.1044 193.141 48.2832C192.662 50.1642 195.395 51.4374 196.348 49.6377C196.931 48.5369 198.334 49.0873 198.975 49.8483C199.741 50.7529 200.033 52.0165 200.296 53.1413C200.936 55.966 201.203 58.8625 201.091 61.7566C200.913 66.8549 199.62 71.8524 197.305 76.3979C196.122 73.6924 194.747 71.0755 193.189 68.5675C188.924 61.7183 183.2 55.678 176.221 51.5666C174.591 50.6104 172.895 49.7692 171.148 49.049C174.073 46.2836 176.728 43.2467 179.078 39.9789ZM33.3067 45.3444C32.943 44.928 32.5075 44.5259 32.1581 44.0856L32.4691 43.9181C33.5987 43.3341 34.7427 42.7741 35.8723 42.1998L42.0322 39.0887C42.1853 43.157 42.4535 47.2254 42.2477 51.2842C42.1854 52.5669 42.0657 53.8497 41.9221 55.1132L33.3067 45.3444ZM36.4466 143.502C36.5141 143.242 36.5216 142.97 36.4687 142.707C36.4157 142.444 36.3037 142.196 36.1409 141.983C35.9782 141.769 35.7689 141.596 35.5292 141.475C35.2894 141.354 35.0254 141.29 34.757 141.286C26.5772 141.114 22.4323 131.335 28.0562 125.362C28.7885 124.586 28.7406 123.136 27.702 122.605C17.4689 117.402 19.4982 104.106 22.9874 95.323C26.3646 86.9564 31.797 79.5765 38.7823 73.866C38.4791 75.8284 38.2111 77.7955 37.9782 79.7675C36.6562 91.1462 36.2225 102.611 36.6811 114.057C37.1597 126.372 38.409 140.142 44.5068 151.174C39.6726 153.118 34.781 148.604 36.4466 143.502ZM178.964 153.625C166.759 166.95 149.992 175.403 132.24 178.346C123.327 179.859 114.226 179.892 105.302 178.447C95.4953 176.791 86.3056 172.852 77.1494 169.113C72.6502 167.276 68.1272 165.49 63.5036 163.973C48.5129 158.229 42.4438 141.233 40.9505 126.496C38.8253 105.614 40.0794 84.5011 44.0616 63.9344C44.9245 59.7678 45.4908 55.5453 45.7559 51.2985C45.9713 47.0339 45.6698 42.8029 45.5214 38.5383C45.2821 31.9954 45.5836 24.2368 52.8157 21.6617C58.4731 19.6419 66.3946 19.2399 71.5542 22.7674C74.9046 25.0504 76.3404 29.3055 77.7237 32.9239C79.1596 36.7529 80.6385 40.582 82.7254 44.1287C84.7212 47.4791 87.3585 50.5471 90.7855 52.5143C94.9305 54.9074 99.8173 55.4914 104.517 55.4435C114.401 55.3526 124.141 53.0503 133.79 51.2555C143.598 49.4319 153.836 47.9625 163.691 50.2982C171.264 52.1712 178.143 56.1721 183.515 61.8284C208.131 87.2485 201.273 129.21 178.94 153.611L178.964 153.625Z" fill="black"/>
<path id="Vector_2" d="M42.2243 51.2843C42.1621 52.567 42.0424 53.8497 41.8988 55.1133L33.2834 45.3349C32.9197 44.9185 32.4842 44.5164 32.1348 44.0761L32.4458 43.9086C33.5754 43.3246 34.7194 42.7647 35.8489 42.1903L42.009 39.0792C42.1621 43.1571 42.4301 47.2064 42.2243 51.2843Z" fill="#FFAE06"/>
<path id="Vector_3" d="M44.4499 151.16C39.6636 153.118 34.7816 148.604 36.4233 143.502C36.4908 143.242 36.4983 142.971 36.4454 142.707C36.3924 142.444 36.2803 142.197 36.1176 141.983C35.9548 141.77 35.7457 141.596 35.506 141.475C35.2662 141.354 35.0021 141.29 34.7337 141.286C26.5539 141.114 22.409 131.335 28.0329 125.362C28.7652 124.587 28.7173 123.136 27.6787 122.605C17.4456 117.402 19.475 104.106 22.9643 95.3232C26.3414 86.9566 31.7738 79.5767 38.7591 73.8662C38.4559 75.8285 38.1878 77.7957 37.9549 79.7677C36.6328 91.1464 36.1992 102.611 36.6578 114.057C37.0886 126.358 38.3617 140.152 44.4499 151.16Z" fill="white"/>
<path id="Vector_4" d="M201.058 61.7807C200.88 66.879 199.588 71.8765 197.272 76.422C196.09 73.7165 194.714 71.0996 193.156 68.5916C188.891 61.7424 183.167 55.7021 176.189 51.5906C174.558 50.6345 172.863 49.7933 171.115 49.0731C174.045 46.3006 176.703 43.2556 179.056 39.9791C180.54 37.9118 181.891 35.752 183.1 33.5128C184.201 31.469 185.015 29.2913 186.125 27.2475C186.532 26.4865 187.154 25.266 188.04 24.9501C189.088 24.5767 190.107 25.6393 190.773 26.3094C192.38 27.9958 193.533 30.0626 194.123 32.3162C195.611 37.5811 194.463 43.1045 193.118 48.2833C192.639 50.1643 195.372 51.4375 196.325 49.6379C196.909 48.537 198.311 49.0874 198.952 49.8485C199.718 50.7531 200.01 52.0167 200.273 53.1414C200.912 55.9744 201.176 58.879 201.058 61.7807Z" fill="white"/>
<path id="Vector_5" d="M183.491 61.8237C178.118 56.1674 171.239 52.1666 163.666 50.2935C153.811 47.9482 143.563 49.4176 133.766 51.2508C124.098 53.0457 114.376 55.3479 104.493 55.4388C99.7926 55.4867 94.9202 54.8836 90.7609 52.5096C87.3339 50.5424 84.6966 47.4935 82.7007 44.124C80.6139 40.6013 79.1588 36.7291 77.699 32.9192C76.3206 29.3008 74.8752 25.0458 71.5295 22.7627C66.3699 19.2352 58.4485 19.6372 52.7911 21.6571C45.559 24.2321 45.2574 31.9907 45.4967 38.5336C45.6451 42.7982 45.9467 47.0292 45.7313 51.2938C45.4661 55.5406 44.9 59.7631 44.037 63.9297C40.0548 84.5108 38.8008 105.609 40.9259 126.491C42.4288 141.229 48.4882 158.225 63.4789 163.968C68.1025 165.486 72.6256 167.271 77.1247 169.109C86.2809 172.847 95.4706 176.767 105.278 178.442C114.201 179.888 123.302 179.854 132.215 178.342C149.968 175.398 166.734 166.945 178.939 153.62C201.272 129.21 208.131 87.2486 183.491 61.8237ZM50.3501 31.871C50.3605 31.5974 50.4358 31.3301 50.5698 31.0913C50.7038 30.8524 50.8925 30.6489 51.1207 30.4974C51.4988 29.095 53.5138 28.334 54.2509 29.9565C55.626 32.9492 56.0133 36.3018 55.3566 39.5291C55.2838 39.7872 55.1532 40.0253 54.9745 40.2253C54.7958 40.4252 54.5737 40.5817 54.3254 40.6828C54.077 40.7839 53.8088 40.8269 53.5413 40.8086C53.2737 40.7904 53.0138 40.7113 52.7815 40.5773C49.7709 38.6437 50.1778 34.9869 50.3501 31.871ZM87.3195 107.758C86.1225 108.947 84.564 109.705 82.8892 109.912C81.2144 110.119 79.5183 109.764 78.0676 108.902C77.5554 111.97 76.1866 114.732 72.9127 116C71.6863 116.461 70.351 116.551 69.074 116.257C67.797 115.963 66.635 115.299 65.7333 114.349C63.7134 117.919 60.6024 121.49 57.1754 117.699C53.7484 113.908 52.0061 108.567 51.9583 103.479C51.9583 101.215 55.4475 101.225 55.4667 103.479C55.4803 107.031 56.4974 110.507 58.4007 113.506C58.7549 114.057 59.4154 115.378 60.0711 115.627C60.7269 115.875 61.2629 114.799 61.6745 114.191C62.7334 112.593 63.6434 110.901 64.3931 109.136C65.0967 107.514 67.7435 108.366 67.6622 110.017C67.5138 113.052 70.9647 113.636 72.9271 111.994C75.1192 110.156 74.9134 106.834 74.8416 104.254C74.789 102.244 77.7564 101.919 78.2829 103.776C79.1828 106.968 83.2321 107.298 85.1945 104.905C87.4344 102.167 86.1517 98.3241 83.5288 96.3713C81.734 95.0359 83.4857 91.9966 85.2997 93.3416C89.8419 96.7351 91.6942 103.364 87.3195 107.758ZM172.913 105.063C170.999 108.241 166.911 107.648 163.819 107.145C161.408 106.747 159.055 106.056 156.812 105.087C157.35 107.134 157.396 109.279 156.946 111.348C156.586 112.764 155.857 114.059 154.833 115.101C153.808 116.143 152.526 116.894 151.116 117.278C145.813 118.771 141.443 115.909 138.05 112.19C137.418 113.536 136.423 114.68 135.178 115.493C131.713 117.824 127.17 116.809 123.552 115.426C116.617 112.774 109.528 108.768 106.187 101.813C105.23 99.7887 108.24 98.013 109.212 100.042C111.667 105.159 116.368 108.375 121.374 110.721C124.045 111.97 127.118 113.401 130.138 113.372C132.397 113.372 136.36 111.391 135.077 108.466C134.192 106.408 136.781 104.829 138.107 106.695C140.749 110.419 144.569 115.062 149.738 114.004C155.481 112.831 153.634 106.044 152.294 102.163C151.782 100.679 153.61 99.4441 154.869 100.181C158.211 102.178 161.938 103.445 165.805 103.9C167.356 104.068 169.491 104.508 170.151 102.708C170.63 101.373 170.333 99.7552 170.046 98.4007C167.557 86.8083 156.276 79.5139 146.301 74.7755C133.848 68.9012 120.234 65.8981 106.465 65.9878C104.201 65.9878 104.21 62.4938 106.465 62.4794C115.425 62.4323 124.349 63.6374 132.976 66.0596C146.129 69.7738 160.646 76.2497 168.916 87.6363C170.818 90.2257 172.243 93.1334 173.124 96.2229C173.88 98.9894 174.469 102.45 172.913 105.063Z" fill="white"/>
<path id="Vector_6" d="M172.914 105.063C171 108.241 166.912 107.648 163.82 107.145C161.409 106.747 159.056 106.056 156.813 105.087C157.351 107.134 157.397 109.279 156.947 111.348C156.587 112.764 155.858 114.059 154.834 115.101C153.81 116.143 152.527 116.894 151.117 117.278C145.814 118.771 141.444 115.909 138.051 112.19C137.419 113.536 136.424 114.68 135.179 115.493C131.714 117.824 127.171 116.809 123.553 115.426C116.618 112.774 109.529 108.768 106.188 101.813C105.231 99.7887 108.242 98.013 109.213 100.042C111.669 105.159 116.369 108.375 121.375 110.721C124.046 111.97 127.119 113.401 130.139 113.372C132.398 113.372 136.361 111.391 135.078 108.466C134.193 106.408 136.782 104.829 138.108 106.695C140.75 110.419 144.57 115.062 149.739 114.004C155.482 112.831 153.635 106.044 152.295 102.163C151.783 100.679 153.611 99.4441 154.87 100.181C158.212 102.178 161.939 103.445 165.806 103.9C167.357 104.068 169.492 104.508 170.152 102.708C170.631 101.373 170.334 99.7552 170.047 98.4007C167.558 86.8083 156.277 79.5139 146.302 74.7755C133.849 68.9012 120.235 65.8981 106.466 65.9878C104.202 65.9878 104.211 62.4938 106.466 62.4794C115.427 62.4323 124.35 63.6374 132.977 66.0596C146.13 69.7738 160.647 76.2497 168.918 87.6363C170.819 90.2257 172.244 93.1334 173.125 96.2229C173.881 98.9894 174.47 102.45 172.914 105.063Z" fill="black"/>
<path id="Vector_7" d="M55.357 39.5243C55.2842 39.7824 55.1536 40.0205 54.9748 40.2204C54.7961 40.4203 54.5741 40.5768 54.3257 40.6779C54.0774 40.779 53.8092 40.8221 53.5416 40.8038C53.2741 40.7855 53.0142 40.7064 52.7819 40.5725C49.7713 38.6579 50.1782 34.9869 50.3505 31.871C50.3609 31.5973 50.4362 31.33 50.5702 31.0912C50.7042 30.8524 50.8929 30.6488 51.121 30.4973C51.4991 29.0949 53.5142 28.3339 54.2513 29.9564C55.6253 32.9477 56.0126 36.2985 55.357 39.5243Z" fill="black"/>
<path id="Vector_8" d="M87.3203 107.758C86.1232 108.947 84.5647 109.705 82.8899 109.912C81.2151 110.119 79.519 109.764 78.0683 108.902C77.5562 111.97 76.1873 114.731 72.9134 116C71.687 116.461 70.3517 116.55 69.0747 116.257C67.7977 115.963 66.6357 115.299 65.734 114.349C63.7142 117.919 60.6031 121.49 57.1761 117.699C53.7491 113.908 52.0068 108.567 51.959 103.479C51.959 101.215 55.4482 101.225 55.4674 103.479C55.481 107.031 56.4981 110.507 58.4015 113.506C58.7556 114.057 59.4161 115.378 60.0719 115.627C60.7276 115.875 61.2636 114.798 61.6752 114.191C62.7341 112.593 63.6441 110.901 64.3938 109.136C65.0974 107.514 67.7442 108.366 67.6629 110.017C67.5145 113.051 70.9654 113.635 72.9278 111.994C75.1199 110.156 74.9141 106.834 74.8423 104.254C74.7897 102.244 77.7572 101.919 78.2837 103.776C79.1835 106.968 83.2328 107.298 85.1952 104.905C87.4352 102.167 86.1525 98.324 83.5296 96.3712C81.7347 95.0358 83.4865 91.9965 85.3005 93.3415C89.8427 96.735 91.695 103.364 87.3203 107.758Z" fill="black"/>
<path id="Vector_9" d="M48.0543 62.0581C45.7841 65.5378 44.505 69.5704 44.3545 73.7224C44.2922 75.4167 44.4406 77.1685 45.2208 78.6666C46.001 80.1647 47.5325 81.3757 49.2221 81.3661C51.7445 81.3661 53.5297 78.8006 54.0993 76.3453C54.6278 73.7834 54.3432 71.1205 53.2852 68.7282C52.2272 66.336 50.4487 64.3337 48.1979 63.001" fill="#FF0906"/>
<path id="Vector_10" d="M44.5821 22.3703C43.0217 20.001 40.9253 17.0383 40.2744 14.2814C39.6235 11.5245 39.7336 8.49479 41.1264 6.02505C42.5192 3.55532 45.3048 1.79396 48.1239 2.08114C50.943 2.36832 53.4559 5.01036 53.183 7.82471C53.6192 5.56412 54.7054 3.47987 56.3085 1.82745C57.4142 0.693099 58.9554 -0.264159 60.5109 0.066096C62.0665 0.396351 63.0859 1.89925 63.3587 3.41651C63.6316 4.93377 63.287 6.52761 62.9424 8.05444C63.7513 6.44624 64.809 4.88591 66.3502 3.95736C67.8914 3.02882 70.0022 2.87087 71.4333 3.95736C73.2808 5.36933 73.2999 8.24111 72.3283 10.3567C71.7104 11.6953 70.7876 12.8707 69.6336 13.7884C66.0391 16.6602 62.1573 16.1481 57.5721 16.4018C52.9868 16.6554 48.1047 18.1536 44.649 22.4804" fill="#FF0906"/>
</g>
</g>
</g>
</g>
</svg>
